<svg height="1966" width="720" xmlns="http://www.w3.org/2000/svg">
<rect height="1966" fill="#555" width="720"></rect>
<text fill="#7f7" font-family="Courier New" font-size="12" xml:space="preserve">
<tspan x="10" y="26">22 megabytes installed</tspan>
<tspan x="10" y="42"></tspan>
<tspan x="10" y="58">node_modules</tspan>
<tspan x="10" y="74">└─┬ minigun@1.3.4 </tspan>
<tspan x="10" y="90">  ├── async@1.5.2 </tspan>
<tspan x="10" y="106">  ├─┬ cli@0.6.6 </tspan>
<tspan x="10" y="122">  │ ├── exit@0.1.2 </tspan>
<tspan x="10" y="138">  │ └─┬ glob@3.2.11 </tspan>
<tspan x="10" y="154">  │   ├── inherits@2.0.3 </tspan>
<tspan x="10" y="170">  │   └─┬ minimatch@0.3.0 </tspan>
<tspan x="10" y="186">  │     ├── lru-cache@2.7.3 </tspan>
<tspan x="10" y="202">  │     └── sigmund@1.0.1 </tspan>
<tspan x="10" y="218">  ├─┬ commander@2.9.0 </tspan>
<tspan x="10" y="234">  │ └── graceful-readlink@1.0.1 </tspan>
<tspan x="10" y="250">  ├── csv-parse@0.1.4 </tspan>
<tspan x="10" y="266">  ├─┬ debug@2.6.4 </tspan>
<tspan x="10" y="282">  │ └── ms@0.7.3 </tspan>
<tspan x="10" y="298">  ├── lodash@3.10.1 </tspan>
<tspan x="10" y="314">  ├─┬ minigun-core@1.4.2 </tspan>
<tspan x="10" y="330">  │ ├─┬ arrivals@2.1.0 </tspan>
<tspan x="10" y="346">  │ │ ├─┬ debug@2.3.3 </tspan>
<tspan x="10" y="362">  │ │ │ └── ms@0.7.2 </tspan>
<tspan x="10" y="378">  │ │ └── nanotimer@0.3.14 </tspan>
<tspan x="10" y="394">  │ ├─┬ debug@2.2.0 </tspan>
<tspan x="10" y="410">  │ │ └── ms@0.7.1 </tspan>
<tspan x="10" y="426">  │ ├── esprima@2.5.0 </tspan>
<tspan x="10" y="442">  │ ├─┬ hogan.js@3.0.2 </tspan>
<tspan x="10" y="458">  │ │ ├── mkdirp@0.3.0 </tspan>
<tspan x="10" y="474">  │ │ └─┬ nopt@1.0.10 </tspan>
<tspan x="10" y="490">  │ │   └── abbrev@1.1.0 </tspan>
<tspan x="10" y="506">  │ ├── jsck@0.2.5 </tspan>
<tspan x="10" y="522">  │ ├─┬ JSONPath@0.10.0 </tspan>
<tspan x="10" y="538">  │ │ └── underscore@1.8.3 </tspan>
<tspan x="10" y="554">  │ ├── lodash@3.10.0 </tspan>
<tspan x="10" y="570">  │ ├── measured@1.1.0 </tspan>
<tspan x="10" y="586">  │ ├─┬ request@2.67.0 </tspan>
<tspan x="10" y="602">  │ │ ├── aws-sign2@0.6.0 </tspan>
<tspan x="10" y="618">  │ │ ├─┬ bl@1.0.3 </tspan>
<tspan x="10" y="634">  │ │ │ └─┬ readable-stream@2.0.6 </tspan>
<tspan x="10" y="650">  │ │ │   ├── core-util-is@1.0.2 </tspan>
<tspan x="10" y="666">  │ │ │   ├── isarray@1.0.0 </tspan>
<tspan x="10" y="682">  │ │ │   ├── process-nextick-args@1.0.7 </tspan>
<tspan x="10" y="698">  │ │ │   ├── string_decoder@0.10.31 </tspan>
<tspan x="10" y="714">  │ │ │   └── util-deprecate@1.0.2 </tspan>
<tspan x="10" y="730">  │ │ ├── caseless@0.11.0 </tspan>
<tspan x="10" y="746">  │ │ ├─┬ combined-stream@1.0.5 </tspan>
<tspan x="10" y="762">  │ │ │ └── delayed-stream@1.0.0 </tspan>
<tspan x="10" y="778">  │ │ ├── extend@3.0.0 </tspan>
<tspan x="10" y="794">  │ │ ├── forever-agent@0.6.1 </tspan>
<tspan x="10" y="810">  │ │ ├─┬ form-data@1.0.1 </tspan>
<tspan x="10" y="826">  │ │ │ └─┬ async@2.3.0 </tspan>
<tspan x="10" y="842">  │ │ │   └── lodash@4.17.4 </tspan>
<tspan x="10" y="858">  │ │ ├─┬ har-validator@2.0.6 </tspan>
<tspan x="10" y="874">  │ │ │ ├─┬ chalk@1.1.3 </tspan>
<tspan x="10" y="890">  │ │ │ │ ├── ansi-styles@2.2.1 </tspan>
<tspan x="10" y="906">  │ │ │ │ ├── escape-string-regexp@1.0.5 </tspan>
<tspan x="10" y="922">  │ │ │ │ ├─┬ has-ansi@2.0.0 </tspan>
<tspan x="10" y="938">  │ │ │ │ │ └── ansi-regex@2.1.1 </tspan>
<tspan x="10" y="954">  │ │ │ │ ├── strip-ansi@3.0.1 </tspan>
<tspan x="10" y="970">  │ │ │ │ └── supports-color@2.0.0 </tspan>
<tspan x="10" y="986">  │ │ │ ├─┬ is-my-json-valid@2.16.0 </tspan>
<tspan x="10" y="1002">  │ │ │ │ ├── generate-function@2.0.0 </tspan>
<tspan x="10" y="1018">  │ │ │ │ ├─┬ generate-object-property@1.2.0 </tspan>
<tspan x="10" y="1034">  │ │ │ │ │ └── is-property@1.0.2 </tspan>
<tspan x="10" y="1050">  │ │ │ │ ├── jsonpointer@4.0.1 </tspan>
<tspan x="10" y="1066">  │ │ │ │ └── xtend@4.0.1 </tspan>
<tspan x="10" y="1082">  │ │ │ └─┬ pinkie-promise@2.0.1 </tspan>
<tspan x="10" y="1098">  │ │ │   └── pinkie@2.0.4 </tspan>
<tspan x="10" y="1114">  │ │ ├─┬ hawk@3.1.3 </tspan>
<tspan x="10" y="1130">  │ │ │ ├── boom@2.10.1 </tspan>
<tspan x="10" y="1146">  │ │ │ ├── cryptiles@2.0.5 </tspan>
<tspan x="10" y="1162">  │ │ │ ├── hoek@2.16.3 </tspan>
<tspan x="10" y="1178">  │ │ │ └── sntp@1.0.9 </tspan>
<tspan x="10" y="1194">  │ │ ├─┬ http-signature@1.1.1 </tspan>
<tspan x="10" y="1210">  │ │ │ ├── assert-plus@0.2.0 </tspan>
<tspan x="10" y="1226">  │ │ │ ├─┬ jsprim@1.4.0 </tspan>
<tspan x="10" y="1242">  │ │ │ │ ├── assert-plus@1.0.0 </tspan>
<tspan x="10" y="1258">  │ │ │ │ ├── extsprintf@1.0.2 </tspan>
<tspan x="10" y="1274">  │ │ │ │ ├── json-schema@0.2.3 </tspan>
<tspan x="10" y="1290">  │ │ │ │ └── verror@1.3.6 </tspan>
<tspan x="10" y="1306">  │ │ │ └─┬ sshpk@1.13.0 </tspan>
<tspan x="10" y="1322">  │ │ │   ├── asn1@0.2.3 </tspan>
<tspan x="10" y="1338">  │ │ │   ├── assert-plus@1.0.0 </tspan>
<tspan x="10" y="1354">  │ │ │   ├── bcrypt-pbkdf@1.0.1 </tspan>
<tspan x="10" y="1370">  │ │ │   ├─┬ dashdash@1.14.1 </tspan>
<tspan x="10" y="1386">  │ │ │   │ └── assert-plus@1.0.0 </tspan>
<tspan x="10" y="1402">  │ │ │   ├── ecc-jsbn@0.1.1 </tspan>
<tspan x="10" y="1418">  │ │ │   ├─┬ getpass@0.1.6 </tspan>
<tspan x="10" y="1434">  │ │ │   │ └── assert-plus@1.0.0 </tspan>
<tspan x="10" y="1450">  │ │ │   ├── jodid25519@1.0.2 </tspan>
<tspan x="10" y="1466">  │ │ │   ├── jsbn@0.1.1 </tspan>
<tspan x="10" y="1482">  │ │ │   └── tweetnacl@0.14.5 </tspan>
<tspan x="10" y="1498">  │ │ ├── is-typedarray@1.0.0 </tspan>
<tspan x="10" y="1514">  │ │ ├── isstream@0.1.2 </tspan>
<tspan x="10" y="1530">  │ │ ├── json-stringify-safe@5.0.1 </tspan>
<tspan x="10" y="1546">  │ │ ├─┬ mime-types@2.1.15 </tspan>
<tspan x="10" y="1562">  │ │ │ └── mime-db@1.27.0 </tspan>
<tspan x="10" y="1578">  │ │ ├── node-uuid@1.4.8 </tspan>
<tspan x="10" y="1594">  │ │ ├── oauth-sign@0.8.2 </tspan>
<tspan x="10" y="1610">  │ │ ├── qs@5.2.1 </tspan>
<tspan x="10" y="1626">  │ │ ├── stringstream@0.0.5 </tspan>
<tspan x="10" y="1642">  │ │ ├── tough-cookie@2.2.2 </tspan>
<tspan x="10" y="1658">  │ │ └── tunnel-agent@0.4.3 </tspan>
<tspan x="10" y="1674">  │ ├── traverse@0.6.6 </tspan>
<tspan x="10" y="1690">  │ └─┬ ws@1.0.1 </tspan>
<tspan x="10" y="1706">  │   ├── options@0.0.6 </tspan>
<tspan x="10" y="1722">  │   └── ultron@1.0.2 </tspan>
<tspan x="10" y="1738">  ├── open@0.0.5 </tspan>
<tspan x="10" y="1754">  └─┬ yamljs@0.2.10 </tspan>
<tspan x="10" y="1770">    ├─┬ argparse@1.0.9 </tspan>
<tspan x="10" y="1786">    │ └── sprintf-js@1.0.3 </tspan>
<tspan x="10" y="1802">    └─┬ glob@7.1.1 </tspan>
<tspan x="10" y="1818">      ├── fs.realpath@1.0.0 </tspan>
<tspan x="10" y="1834">      ├─┬ inflight@1.0.6 </tspan>
<tspan x="10" y="1850">      │ └── wrappy@1.0.2 </tspan>
<tspan x="10" y="1866">      ├─┬ minimatch@3.0.3 </tspan>
<tspan x="10" y="1882">      │ └─┬ brace-expansion@1.1.7 </tspan>
<tspan x="10" y="1898">      │   ├── balanced-match@0.4.2 </tspan>
<tspan x="10" y="1914">      │   └── concat-map@0.0.1 </tspan>
<tspan x="10" y="1930">      ├── once@1.4.0 </tspan>
<tspan x="10" y="1946">      └── path-is-absolute@1.0.1</tspan>
</text>
</svg>
